<?xml version="1.0" standalone="no"?>
<!DOCTYPE svg PUBLIC "-//W3C//DTD SVG 20010904//EN"
 "http://www.w3.org/TR/2001/REC-SVG-20010904/DTD/svg10.dtd">
<svg version="1.0" xmlns="http://www.w3.org/2000/svg"
 width="500.000000pt" height="500.000000pt" viewBox="0 0 500.000000 500.000000"
 preserveAspectRatio="xMidYMid meet">
<metadata>
Created by potrace 1.11, written by Peter Selinger 2001-2013
</metadata>
<g transform="translate(0.000000,500.000000) scale(0.100000,-0.100000)"
fill="#000000" stroke="none">
<path d="M2295 4860 c-11 -4 -23 -6 -27 -3 -5 2 -8 -1 -8 -8 0 -7 -3 -9 -7 -6
-3 4 -12 2 -20 -4 -10 -9 -13 -8 -13 0 0 7 -5 9 -11 5 -6 -3 -28 -9 -48 -11
-20 -3 -39 -10 -42 -15 -4 -6 -8 -5 -11 2 -7 23 -48 -12 -48 -41 0 -20 6 -28
25 -33 24 -6 30 -21 25 -56 -1 -8 -6 -18 -11 -21 -5 -3 -7 -20 -5 -37 2 -21
-3 -39 -15 -54 -11 -11 -19 -34 -19 -49 0 -24 3 -27 23 -23 60 13 121 24 128
24 13 0 11 -44 -2 -57 -8 -8 -7 -20 5 -44 9 -18 16 -33 16 -34 0 0 -19 -2 -42
-2 -69 -2 -98 -18 -98 -52 0 -15 7 -34 15 -41 10 -8 15 -30 15 -60 0 -41 -4
-52 -27 -70 -15 -12 -38 -20 -52 -18 -24 3 -26 0 -25 -40 1 -26 11 -56 25 -78
22 -32 27 -34 59 -28 119 22 122 22 126 -1 1 -10 -2 -38 -9 -62 -10 -38 -9
-46 10 -71 12 -16 23 -38 25 -48 3 -18 -14 -19 -588 -22 l-591 -2 1 -460 1
-460 -23 0 c-15 0 -26 7 -29 19 -3 13 -22 26 -51 35 -56 20 -52 20 -52 -3 0
-37 -11 -51 -30 -41 -28 15 -121 -12 -131 -37 -7 -20 -10 -21 -95 -14 -6 1
-17 21 -24 46 -7 25 -16 48 -21 51 -4 2 -30 -9 -57 -26 -58 -36 -87 -39 -79
-10 7 25 3 27 -64 35 -40 5 -70 2 -108 -11 -51 -16 -54 -16 -91 4 l-39 20 -10
-46 c-5 -25 -7 -50 -5 -54 3 -4 1 -8 -4 -8 -6 0 -10 -6 -9 -12 2 -55 -6 -80
-30 -102 -15 -14 -30 -23 -35 -20 -4 3 -15 -2 -24 -10 -9 -9 -20 -14 -25 -10
-23 14 -31 -85 -14 -182 4 -21 8 -50 10 -64 3 -37 16 -93 23 -105 4 -5 7 -17
9 -25 1 -8 11 -44 23 -80 11 -36 31 -103 44 -150 13 -47 31 -105 39 -130 9
-25 21 -65 28 -90 7 -25 16 -49 19 -55 7 -10 18 -48 27 -90 3 -11 6 -24 7 -30
5 -21 53 -125 103 -223 29 -57 52 -106 51 -110 -1 -4 15 -40 35 -79 21 -40 35
-73 32 -73 -3 0 2 -11 11 -25 9 -14 20 -23 24 -20 19 12 28 -28 14 -61 -9 -21
-10 -35 -4 -39 6 -4 7 -12 3 -18 -22 -34 11 -105 43 -93 7 3 14 1 16 -4 2 -6
15 -11 30 -12 15 -1 25 -4 23 -7 -3 -2 3 -11 13 -20 9 -9 26 -33 37 -54 11
-22 29 -45 40 -53 11 -8 15 -14 10 -15 -6 0 -1 -4 9 -8 11 -4 21 -19 23 -35 4
-26 30 -66 45 -66 4 0 42 -16 85 -37 43 -20 81 -35 85 -35 5 1 8 -3 8 -9 0 -5
4 -7 10 -4 5 3 10 3 10 -2 0 -4 21 -19 48 -32 26 -14 54 -30 62 -37 51 -42
360 -182 473 -215 26 -7 47 -17 47 -21 0 -4 3 -7 8 -7 4 1 9 0 12 -1 3 -1 12
-3 20 -5 8 -2 29 -9 45 -16 17 -6 39 -14 50 -16 11 -2 31 -7 45 -12 40 -14
163 -50 190 -55 14 -3 35 -7 48 -10 12 -4 32 -8 45 -11 27 -7 100 -15 187 -20
78 -4 126 -11 160 -24 14 -5 39 -13 55 -17 17 -4 35 -8 40 -10 6 -2 20 -5 33
-8 12 -3 26 -7 31 -10 11 -7 104 30 151 60 19 13 53 26 75 30 22 3 48 11 59
16 14 8 17 7 11 -3 -6 -8 -4 -10 6 -3 16 10 33 14 70 17 14 1 34 9 44 17 10 8
20 14 22 13 1 -2 6 -2 11 -2 4 1 16 0 26 -1 17 -2 18 3 12 51 -9 66 -20 87
-51 95 -14 3 -25 10 -25 15 0 13 -1 16 -10 49 -6 19 -5 41 1 57 l10 26 -54 -7
-54 -6 7 39 c9 53 -15 87 -55 77 -64 -16 -105 -18 -107 -4 -11 97 -11 125 1
186 11 53 10 54 -24 96 -19 24 -35 46 -35 50 0 3 13 6 28 6 16 0 31 3 35 6 9
10 -47 103 -73 121 -65 45 -84 43 518 43 l568 0 2 553 c1 303 1 563 2 577 0
24 3 25 40 22 35 -4 44 -11 42 -33 -2 -17 55 8 77 34 51 60 61 81 61 135 l0
52 43 0 c43 0 45 -1 63 -45 l18 -45 53 0 c53 0 72 10 98 53 19 31 153 22 141
-9 -4 -11 1 -13 22 -8 40 10 38 4 41 96 1 31 5 38 32 47 45 16 47 15 44 -25
-2 -34 -1 -35 24 -29 75 18 82 18 88 -4 3 -11 9 -21 13 -21 5 0 10 -8 12 -17
3 -15 4 -15 21 1 9 10 17 14 17 10 0 -5 5 -3 12 4 7 7 23 12 38 12 35 1 70 30
77 66 8 40 10 218 2 224 -4 3 -10 30 -13 60 -9 70 -11 88 -19 125 -3 17 -8 46
-11 65 -22 149 -58 322 -88 423 -27 88 -56 132 -88 132 -17 0 -25 6 -24 18 1
9 -2 17 -7 17 -5 0 -17 17 -27 38 -9 20 -20 39 -23 42 -13 12 -27 69 -17 72
11 4 -8 88 -20 88 -11 0 -46 69 -39 77 4 3 7 1 7 -5 0 -6 7 -9 15 -6 18 7 14
16 -55 109 -55 75 -137 171 -184 214 -15 14 -48 45 -72 68 -24 23 -44 39 -44
37 0 -3 -14 4 -31 16 -17 12 -45 24 -64 26 -19 1 -48 10 -64 19 -17 8 -31 13
-31 10 0 -6 -120 54 -130 65 -3 3 -17 11 -32 19 -15 8 -36 22 -45 31 -10 9
-22 18 -28 19 -50 17 -65 24 -65 31 0 4 -11 11 -25 14 -14 4 -25 11 -25 17 0
6 -4 8 -9 4 -5 -3 -15 0 -23 7 -7 7 -20 14 -28 16 -8 2 -18 8 -21 14 -4 6 -12
7 -18 4 -6 -4 -11 -2 -11 5 0 7 -3 9 -6 6 -4 -3 -16 0 -28 8 -11 8 -28 15 -37
15 -9 0 -22 6 -29 14 -6 8 -17 13 -25 10 -7 -3 -16 -1 -20 5 -3 6 -15 11 -26
11 -11 0 -31 7 -44 16 -14 9 -25 14 -25 11 0 -4 -18 0 -40 8 -22 8 -41 14 -43
14 -1 -1 -21 4 -45 10 -23 7 -47 9 -52 6 -6 -3 -10 -1 -10 4 0 6 -12 11 -26
11 -14 0 -22 4 -19 10 3 5 0 7 -9 4 -8 -3 -30 -1 -48 5 -18 6 -55 13 -83 17
-27 3 -54 10 -59 14 -5 5 -19 5 -32 0 -12 -5 -24 -5 -26 -1 -2 5 -41 12 -87
15 -47 4 -88 9 -93 12 -4 3 -8 0 -8 -6 0 -8 -6 -8 -20 0 -13 7 -20 7 -20 1 0
-6 -6 -8 -12 -6 -25 8 -213 12 -233 5z"/>
</g>
</svg>
